<svg width="26" height="26" viewBox="0 0 26 26" fill="none" xmlns="http://www.w3.org/2000/svg">
<path d="M8.66671 11.9166L8.66671 14.0833L18.4167 14.0833L18.4167 17.3333L23.8334 13L18.4167 8.66665L18.4167 11.9166L8.66671 11.9166Z" fill="#FF6C00"/>
<path d="M4.33333 22.75L14.0833 22.75C15.2783 22.75 16.25 21.7783 16.25 20.5833L16.25 16.25L14.0833 16.25L14.0833 20.5833L4.33333 20.5833L4.33333 5.41666L14.0833 5.41667L14.0833 9.75L16.25 9.75L16.25 5.41667C16.25 4.22175 15.2783 3.25 14.0833 3.25L4.33333 3.25C3.13842 3.25 2.16667 4.22175 2.16667 5.41666L2.16667 20.5833C2.16667 21.7782 3.13842 22.75 4.33333 22.75Z" fill="#FF6C00"/>
</svg>
