<svg width="10" height="11" viewBox="0 0 10 11" fill="none" xmlns="http://www.w3.org/2000/svg">
<path d="M9.64179 4.13792L6.6664 3.7055L5.33632 1.00901C5.29999 0.935185 5.24023 0.875419 5.1664 0.839091C4.98124 0.747685 4.75624 0.823857 4.66366 1.00901L3.33358 3.7055L0.358195 4.13792C0.276163 4.14964 0.201163 4.18831 0.143741 4.2469C0.0743216 4.31826 0.0360681 4.41425 0.0373865 4.51379C0.0387049 4.61333 0.0794874 4.70828 0.150773 4.77776L2.30351 6.87659L1.79491 9.84026C1.78299 9.9092 1.79062 9.98011 1.81694 10.0449C1.84325 10.1098 1.88721 10.1659 1.94382 10.207C2.00043 10.2481 2.06743 10.2726 2.13722 10.2776C2.20701 10.2825 2.27679 10.2679 2.33866 10.2352L4.99999 8.83597L7.66132 10.2352C7.73398 10.2739 7.81835 10.2867 7.89921 10.2727C8.10312 10.2375 8.24023 10.0442 8.20507 9.84026L7.69648 6.87659L9.84921 4.77776C9.9078 4.72034 9.94648 4.64534 9.95819 4.56331C9.98983 4.35823 9.84687 4.16839 9.64179 4.13792Z" fill="#070707"/>
</svg>
