<svg width="26" height="27" viewBox="0 0 26 27" fill="none" xmlns="http://www.w3.org/2000/svg">
<path d="M24.3884 13.1981L25.8253 10.7147C25.998 10.4159 26.045 10.0608 25.9559 9.72739C25.8668 9.39398 25.649 9.1096 25.3503 8.93678L22.8643 7.49986V4.63642C22.8643 4.29122 22.7272 3.96016 22.4831 3.71607C22.2391 3.47198 21.908 3.33485 21.5628 3.33485H18.7008L17.2652 0.850168C17.0918 0.552001 16.808 0.334105 16.4752 0.243639C16.3101 0.198886 16.1378 0.187346 15.9682 0.209689C15.7986 0.232031 15.6352 0.287811 15.4873 0.373796L13.0014 1.81072L10.5155 0.372494C10.2166 0.199903 9.86133 0.153132 9.52791 0.242469C9.1945 0.331805 8.91022 0.549932 8.73763 0.848866L7.30075 3.33485H4.4387C4.09351 3.33485 3.76247 3.47198 3.51838 3.71607C3.2743 3.96016 3.13718 4.29122 3.13718 4.63642V7.49855L0.651269 8.93548C0.502938 9.02081 0.372927 9.1346 0.268706 9.27032C0.164485 9.40605 0.0881088 9.56103 0.0439648 9.72636C-0.000179076 9.8917 -0.0112204 10.0641 0.0114751 10.2337C0.0341706 10.4034 0.0901555 10.5668 0.176214 10.7147L1.61309 13.1981L0.176214 15.6815C0.00439818 15.9806 -0.0422182 16.3354 0.046528 16.6687C0.135274 17.002 0.352185 17.2867 0.649968 17.4607L3.13587 18.8976V21.7598C3.13587 22.105 3.273 22.436 3.51708 22.6801C3.76116 22.9242 4.09221 23.0613 4.4374 23.0613H7.30075L8.73763 25.5473C8.85285 25.7443 9.01737 25.9079 9.215 26.022C9.41262 26.1361 9.63655 26.1968 9.86474 26.1981C10.0912 26.1981 10.3164 26.1382 10.5168 26.0224L13.0001 24.5855L15.486 26.0224C15.7849 26.1948 16.1399 26.2415 16.4732 26.1525C16.8065 26.0634 17.0908 25.8458 17.2639 25.5473L18.6995 23.0613H21.5615C21.9067 23.0613 22.2378 22.9242 22.4818 22.6801C22.7259 22.436 22.863 22.105 22.863 21.7598V18.8976L25.349 17.4607C25.497 17.3751 25.6268 17.2612 25.7308 17.1255C25.8348 16.9897 25.9111 16.8348 25.9552 16.6696C25.9993 16.5043 26.0105 16.332 25.9879 16.1625C25.9654 15.9929 25.9097 15.8295 25.824 15.6815L24.3884 13.1981ZM9.7463 6.67727C10.2643 6.67744 10.7609 6.88337 11.127 7.24975C11.4932 7.61613 11.6988 8.11295 11.6986 8.63092C11.6984 9.14888 11.4925 9.64557 11.1261 10.0117C10.7598 10.3778 10.263 10.5834 9.745 10.5833C9.22705 10.5831 8.73039 10.3772 8.36426 10.0108C7.99814 9.6444 7.79255 9.14758 7.79272 8.62961C7.79289 8.11165 7.99881 7.61496 8.36518 7.24883C8.73155 6.88269 9.22835 6.6771 9.7463 6.67727ZM10.1368 19.1723L8.05433 17.6117L15.8635 7.19919L17.9459 8.75977L10.1368 19.1723ZM16.2539 19.6929C15.9975 19.6928 15.7435 19.6422 15.5066 19.544C15.2697 19.4458 15.0545 19.3018 14.8732 19.1204C14.6919 18.939 14.5481 18.7237 14.45 18.4867C14.352 18.2497 14.3015 17.9957 14.3016 17.7393C14.3017 17.4828 14.3523 17.2288 14.4505 16.9919C14.5488 16.755 14.6927 16.5398 14.8741 16.3585C15.0555 16.1772 15.2708 16.0334 15.5078 15.9353C15.7448 15.8373 15.9988 15.7868 16.2552 15.7869C16.7732 15.7871 17.2698 15.993 17.636 16.3594C18.0021 16.7258 18.2077 17.2226 18.2075 17.7406C18.2073 18.2585 18.0014 18.7552 17.635 19.1213C17.2687 19.4875 16.7719 19.6931 16.2539 19.6929Z" fill="#FF6C00"/>
</svg>
