<svg width="26" height="26" viewBox="0 0 26 26" fill="none" xmlns="http://www.w3.org/2000/svg">
<path d="M13 0C10.4288 0 7.91543 0.762436 5.77759 2.19089C3.63975 3.61935 1.97351 5.64967 0.989572 8.02511C0.00563265 10.4006 -0.251811 13.0144 0.249797 15.5362C0.751405 18.0579 1.98953 20.3743 3.80762 22.1924C5.6257 24.0105 7.94208 25.2486 10.4638 25.7502C12.9856 26.2518 15.5994 25.9944 17.9749 25.0104C20.3503 24.0265 22.3806 22.3602 23.8091 20.2224C25.2376 18.0846 26 15.5712 26 13C26 9.55218 24.6304 6.24558 22.1924 3.80761C19.7544 1.36964 16.4478 0 13 0V0ZM21.4906 8.63687L10.8144 19.305L4.50938 13C4.29389 12.7845 4.17283 12.4922 4.17283 12.1875C4.17283 11.8828 4.29389 11.5905 4.50938 11.375C4.72487 11.1595 5.01713 11.0384 5.32188 11.0384C5.62663 11.0384 5.91889 11.1595 6.13438 11.375L10.8306 16.0712L19.8819 7.02812C19.9886 6.92142 20.1152 6.83679 20.2547 6.77904C20.3941 6.7213 20.5435 6.69158 20.6944 6.69158C20.8453 6.69158 20.9947 6.7213 21.1341 6.77904C21.2735 6.83679 21.4002 6.92142 21.5069 7.02812C21.6136 7.13482 21.6982 7.26149 21.756 7.4009C21.8137 7.54031 21.8434 7.68973 21.8434 7.84062C21.8434 7.99152 21.8137 8.14094 21.756 8.28035C21.6982 8.41975 21.6136 8.54642 21.5069 8.65312L21.4906 8.63687Z" fill="#FF6C00"/>
</svg>
