<svg width="470" height="89" viewBox="0 0 470 89" fill="none" xmlns="http://www.w3.org/2000/svg">
<path d="M142.462 49.7324C142.98 49.7324 143.446 49.6313 143.859 49.4292C144.281 49.2183 144.62 48.9282 144.875 48.5591C145.138 48.1899 145.283 47.7637 145.31 47.2803H148.302C148.285 48.2031 148.012 49.0425 147.485 49.7983C146.958 50.5542 146.259 51.1562 145.389 51.6045C144.519 52.0439 143.556 52.2637 142.501 52.2637C141.412 52.2637 140.462 52.0791 139.654 51.71C138.845 51.332 138.173 50.8135 137.637 50.1543C137.101 49.4951 136.696 48.7349 136.424 47.8735C136.16 47.0122 136.028 46.0894 136.028 45.105V44.6436C136.028 43.6592 136.16 42.7363 136.424 41.875C136.696 41.0049 137.101 40.2402 137.637 39.5811C138.173 38.9219 138.845 38.4077 139.654 38.0386C140.462 37.6606 141.407 37.4717 142.488 37.4717C143.631 37.4717 144.633 37.7002 145.494 38.1572C146.355 38.6055 147.032 39.2339 147.524 40.0425C148.025 40.8423 148.285 41.7739 148.302 42.8374H145.31C145.283 42.3101 145.151 41.8354 144.914 41.4136C144.686 40.9829 144.36 40.6401 143.938 40.3853C143.525 40.1304 143.029 40.0029 142.449 40.0029C141.807 40.0029 141.275 40.1348 140.854 40.3984C140.432 40.6533 140.102 41.0049 139.865 41.4531C139.627 41.8926 139.456 42.3892 139.351 42.9429C139.254 43.4878 139.206 44.0547 139.206 44.6436V45.105C139.206 45.6938 139.254 46.2651 139.351 46.8188C139.447 47.3726 139.614 47.8691 139.852 48.3086C140.098 48.7393 140.432 49.0864 140.854 49.3501C141.275 49.605 141.812 49.7324 142.462 49.7324ZM150.135 45.0259V44.7227C150.135 43.6943 150.284 42.7407 150.583 41.8618C150.882 40.9741 151.312 40.2051 151.875 39.5547C152.446 38.8955 153.141 38.3857 153.958 38.0254C154.784 37.6562 155.716 37.4717 156.753 37.4717C157.799 37.4717 158.73 37.6562 159.548 38.0254C160.374 38.3857 161.073 38.8955 161.644 39.5547C162.215 40.2051 162.65 40.9741 162.949 41.8618C163.248 42.7407 163.397 43.6943 163.397 44.7227V45.0259C163.397 46.0542 163.248 47.0078 162.949 47.8867C162.65 48.7656 162.215 49.5347 161.644 50.1938C161.073 50.8442 160.378 51.354 159.561 51.7231C158.744 52.0835 157.816 52.2637 156.779 52.2637C155.733 52.2637 154.797 52.0835 153.971 51.7231C153.154 51.354 152.459 50.8442 151.888 50.1938C151.317 49.5347 150.882 48.7656 150.583 47.8867C150.284 47.0078 150.135 46.0542 150.135 45.0259ZM153.312 44.7227V45.0259C153.312 45.6675 153.378 46.2739 153.51 46.8452C153.642 47.4165 153.848 47.9175 154.129 48.3481C154.411 48.7788 154.771 49.1172 155.21 49.3633C155.65 49.6094 156.173 49.7324 156.779 49.7324C157.368 49.7324 157.878 49.6094 158.309 49.3633C158.748 49.1172 159.108 48.7788 159.39 48.3481C159.671 47.9175 159.877 47.4165 160.009 46.8452C160.15 46.2739 160.22 45.6675 160.22 45.0259V44.7227C160.22 44.0898 160.15 43.4922 160.009 42.9297C159.877 42.3584 159.667 41.853 159.376 41.4136C159.095 40.9741 158.735 40.6313 158.295 40.3853C157.865 40.1304 157.351 40.0029 156.753 40.0029C156.155 40.0029 155.637 40.1304 155.197 40.3853C154.767 40.6313 154.411 40.9741 154.129 41.4136C153.848 41.853 153.642 42.3584 153.51 42.9297C153.378 43.4922 153.312 44.0898 153.312 44.7227ZM169.211 40.7808V52H166.034V37.7354H169.027L169.211 40.7808ZM168.645 44.3403L167.616 44.3271C167.625 43.3164 167.766 42.3892 168.038 41.5454C168.319 40.7017 168.706 39.9766 169.198 39.3701C169.699 38.7637 170.297 38.2979 170.991 37.9727C171.686 37.6387 172.459 37.4717 173.312 37.4717C173.997 37.4717 174.617 37.5684 175.17 37.7617C175.733 37.9463 176.212 38.2495 176.607 38.6714C177.012 39.0933 177.319 39.6426 177.53 40.3193C177.741 40.9873 177.847 41.8091 177.847 42.7847V52H174.656V42.7715C174.656 42.0859 174.555 41.5454 174.353 41.1499C174.16 40.7456 173.874 40.46 173.496 40.293C173.127 40.1172 172.666 40.0293 172.112 40.0293C171.567 40.0293 171.079 40.1436 170.648 40.3721C170.218 40.6006 169.853 40.9126 169.554 41.3081C169.264 41.7036 169.04 42.1606 168.882 42.6792C168.724 43.1978 168.645 43.7515 168.645 44.3403ZM184.241 40.7808V52H181.063V37.7354H184.056L184.241 40.7808ZM183.674 44.3403L182.646 44.3271C182.654 43.3164 182.795 42.3892 183.067 41.5454C183.349 40.7017 183.735 39.9766 184.228 39.3701C184.729 38.7637 185.326 38.2979 186.021 37.9727C186.715 37.6387 187.488 37.4717 188.341 37.4717C189.026 37.4717 189.646 37.5684 190.2 37.7617C190.762 37.9463 191.241 38.2495 191.637 38.6714C192.041 39.0933 192.349 39.6426 192.56 40.3193C192.771 40.9873 192.876 41.8091 192.876 42.7847V52H189.686V42.7715C189.686 42.0859 189.584 41.5454 189.382 41.1499C189.189 40.7456 188.903 40.46 188.525 40.293C188.156 40.1172 187.695 40.0293 187.141 40.0293C186.596 40.0293 186.108 40.1436 185.678 40.3721C185.247 40.6006 184.882 40.9126 184.583 41.3081C184.293 41.7036 184.069 42.1606 183.911 42.6792C183.753 43.1978 183.674 43.7515 183.674 44.3403ZM202.408 52.2637C201.353 52.2637 200.399 52.0923 199.547 51.7495C198.703 51.3979 197.982 50.9102 197.385 50.2861C196.796 49.6621 196.343 48.9282 196.027 48.0845C195.71 47.2407 195.552 46.3311 195.552 45.3555V44.8281C195.552 43.7119 195.715 42.7012 196.04 41.7959C196.365 40.8906 196.818 40.1172 197.398 39.4756C197.978 38.8252 198.664 38.3286 199.455 37.9858C200.246 37.6431 201.103 37.4717 202.025 37.4717C203.045 37.4717 203.937 37.6431 204.702 37.9858C205.466 38.3286 206.099 38.812 206.6 39.436C207.11 40.0513 207.488 40.7852 207.734 41.6377C207.989 42.4902 208.116 43.4307 208.116 44.459V45.8169H197.095V43.5361H204.979V43.2856C204.961 42.7144 204.847 42.1782 204.636 41.6772C204.434 41.1763 204.122 40.772 203.7 40.4644C203.278 40.1567 202.715 40.0029 202.012 40.0029C201.485 40.0029 201.015 40.1172 200.602 40.3457C200.197 40.5654 199.859 40.8862 199.586 41.3081C199.314 41.73 199.103 42.2397 198.954 42.8374C198.813 43.4263 198.743 44.0898 198.743 44.8281V45.3555C198.743 45.9795 198.826 46.5596 198.993 47.0957C199.169 47.623 199.424 48.0845 199.758 48.48C200.092 48.8755 200.496 49.1875 200.971 49.416C201.445 49.6357 201.986 49.7456 202.592 49.7456C203.357 49.7456 204.038 49.5918 204.636 49.2842C205.233 48.9766 205.752 48.5415 206.191 47.979L207.866 49.6006C207.558 50.0488 207.158 50.4795 206.666 50.8926C206.174 51.2969 205.572 51.6265 204.86 51.8813C204.157 52.1362 203.339 52.2637 202.408 52.2637ZM216.422 49.7324C216.94 49.7324 217.406 49.6313 217.819 49.4292C218.241 49.2183 218.58 48.9282 218.834 48.5591C219.098 48.1899 219.243 47.7637 219.27 47.2803H222.262C222.245 48.2031 221.972 49.0425 221.445 49.7983C220.917 50.5542 220.219 51.1562 219.349 51.6045C218.479 52.0439 217.516 52.2637 216.461 52.2637C215.372 52.2637 214.422 52.0791 213.614 51.71C212.805 51.332 212.133 50.8135 211.597 50.1543C211.061 49.4951 210.656 48.7349 210.384 47.8735C210.12 47.0122 209.988 46.0894 209.988 45.105V44.6436C209.988 43.6592 210.12 42.7363 210.384 41.875C210.656 41.0049 211.061 40.2402 211.597 39.5811C212.133 38.9219 212.805 38.4077 213.614 38.0386C214.422 37.6606 215.367 37.4717 216.448 37.4717C217.591 37.4717 218.593 37.7002 219.454 38.1572C220.315 38.6055 220.992 39.2339 221.484 40.0425C221.985 40.8423 222.245 41.7739 222.262 42.8374H219.27C219.243 42.3101 219.111 41.8354 218.874 41.4136C218.646 40.9829 218.32 40.6401 217.898 40.3853C217.485 40.1304 216.989 40.0029 216.409 40.0029C215.767 40.0029 215.235 40.1348 214.813 40.3984C214.392 40.6533 214.062 41.0049 213.825 41.4531C213.587 41.8926 213.416 42.3892 213.311 42.9429C213.214 43.4878 213.166 44.0547 213.166 44.6436V45.105C213.166 45.6938 213.214 46.2651 213.311 46.8188C213.407 47.3726 213.574 47.8691 213.812 48.3086C214.058 48.7393 214.392 49.0864 214.813 49.3501C215.235 49.605 215.771 49.7324 216.422 49.7324ZM231.24 37.7354V40.0557H223.198V37.7354H231.24ZM225.519 34.2417H228.696V48.0581C228.696 48.4976 228.757 48.8359 228.88 49.0732C229.012 49.3018 229.192 49.4556 229.421 49.5347C229.649 49.6138 229.917 49.6533 230.225 49.6533C230.445 49.6533 230.656 49.6401 230.858 49.6138C231.06 49.5874 231.223 49.561 231.346 49.5347L231.359 51.9604C231.095 52.0396 230.788 52.1099 230.436 52.1714C230.093 52.2329 229.698 52.2637 229.25 52.2637C228.52 52.2637 227.874 52.1362 227.312 51.8813C226.749 51.6177 226.31 51.1914 225.993 50.6025C225.677 50.0137 225.519 49.2314 225.519 48.2559V34.2417ZM244.292 48.8359L247.588 37.7354H249.618L249.064 41.0576L245.742 52H243.923L244.292 48.8359ZM242.354 37.7354L244.925 48.8887L245.136 52H243.105L239.243 37.7354H242.354ZM252.703 48.7568L255.195 37.7354H258.293L254.443 52H252.413L252.703 48.7568ZM249.961 37.7354L253.217 48.7041L253.626 52H251.807L248.445 41.0444L247.891 37.7354H249.961ZM263.856 37.7354V52H260.666V37.7354H263.856ZM260.455 33.9912C260.455 33.5078 260.613 33.1079 260.93 32.7915C261.255 32.4663 261.703 32.3037 262.274 32.3037C262.837 32.3037 263.281 32.4663 263.606 32.7915C263.931 33.1079 264.094 33.5078 264.094 33.9912C264.094 34.4658 263.931 34.8613 263.606 35.1777C263.281 35.4941 262.837 35.6523 262.274 35.6523C261.703 35.6523 261.255 35.4941 260.93 35.1777C260.613 34.8613 260.455 34.4658 260.455 33.9912ZM273.876 37.7354V40.0557H265.834V37.7354H273.876ZM268.154 34.2417H271.332V48.0581C271.332 48.4976 271.393 48.8359 271.516 49.0732C271.648 49.3018 271.828 49.4556 272.057 49.5347C272.285 49.6138 272.553 49.6533 272.861 49.6533C273.081 49.6533 273.292 49.6401 273.494 49.6138C273.696 49.5874 273.858 49.561 273.981 49.5347L273.995 51.9604C273.731 52.0396 273.423 52.1099 273.072 52.1714C272.729 52.2329 272.333 52.2637 271.885 52.2637C271.156 52.2637 270.51 52.1362 269.947 51.8813C269.385 51.6177 268.945 51.1914 268.629 50.6025C268.312 50.0137 268.154 49.2314 268.154 48.2559V34.2417ZM279.466 31.75V52H276.302V31.75H279.466ZM278.912 44.3403L277.884 44.3271C277.893 43.3428 278.029 42.4331 278.292 41.5981C278.565 40.7632 278.943 40.0381 279.426 39.4229C279.918 38.7988 280.507 38.3198 281.193 37.9858C281.878 37.6431 282.639 37.4717 283.474 37.4717C284.177 37.4717 284.81 37.5684 285.372 37.7617C285.943 37.9551 286.436 38.2671 286.849 38.6978C287.262 39.1196 287.574 39.6733 287.785 40.3589C288.004 41.0356 288.114 41.8618 288.114 42.8374V52H284.924V42.811C284.924 42.1255 284.823 41.5806 284.621 41.1763C284.427 40.772 284.142 40.4819 283.764 40.3062C283.386 40.1216 282.924 40.0293 282.379 40.0293C281.808 40.0293 281.303 40.1436 280.863 40.3721C280.433 40.6006 280.072 40.9126 279.782 41.3081C279.492 41.7036 279.272 42.1606 279.123 42.6792C278.982 43.1978 278.912 43.7515 278.912 44.3403Z" fill="black"/>
<path d="M307.191 37.7354H310.078V51.6045C310.078 52.8877 309.806 53.9775 309.261 54.874C308.716 55.7705 307.956 56.4517 306.98 56.9175C306.004 57.3921 304.875 57.6294 303.592 57.6294C303.047 57.6294 302.44 57.5503 301.772 57.3921C301.113 57.2339 300.472 56.979 299.848 56.6274C299.232 56.2847 298.718 55.832 298.305 55.2695L299.795 53.3975C300.305 54.0039 300.867 54.4478 301.482 54.729C302.098 55.0103 302.744 55.1509 303.42 55.1509C304.15 55.1509 304.77 55.0146 305.279 54.7422C305.798 54.4785 306.198 54.0874 306.479 53.5688C306.76 53.0503 306.901 52.4175 306.901 51.6704V40.9653L307.191 37.7354ZM297.501 45.0259V44.749C297.501 43.668 297.633 42.6836 297.896 41.7959C298.16 40.8994 298.538 40.1304 299.03 39.4888C299.522 38.8384 300.12 38.3418 300.823 37.999C301.526 37.6475 302.322 37.4717 303.209 37.4717C304.132 37.4717 304.919 37.6387 305.569 37.9727C306.229 38.3066 306.778 38.7856 307.217 39.4097C307.657 40.0249 308 40.7632 308.246 41.6245C308.5 42.4771 308.689 43.4263 308.812 44.4722V45.3555C308.698 46.375 308.505 47.3066 308.232 48.1504C307.96 48.9941 307.6 49.7236 307.151 50.3389C306.703 50.9541 306.149 51.4287 305.49 51.7627C304.84 52.0967 304.071 52.2637 303.183 52.2637C302.313 52.2637 301.526 52.0835 300.823 51.7231C300.129 51.3628 299.531 50.8574 299.03 50.207C298.538 49.5566 298.16 48.792 297.896 47.9131C297.633 47.0254 297.501 46.063 297.501 45.0259ZM300.678 44.749V45.0259C300.678 45.6763 300.74 46.2827 300.863 46.8452C300.995 47.4077 301.192 47.9043 301.456 48.335C301.729 48.7568 302.071 49.0908 302.484 49.3369C302.906 49.5742 303.403 49.6929 303.974 49.6929C304.721 49.6929 305.332 49.5347 305.807 49.2183C306.29 48.9019 306.659 48.4756 306.914 47.9395C307.178 47.3945 307.362 46.7881 307.468 46.1201V43.7339C307.415 43.2153 307.305 42.7319 307.138 42.2837C306.98 41.8354 306.765 41.4443 306.492 41.1104C306.22 40.7676 305.877 40.5039 305.464 40.3193C305.051 40.126 304.563 40.0293 304 40.0293C303.429 40.0293 302.933 40.1523 302.511 40.3984C302.089 40.6445 301.742 40.9829 301.469 41.4136C301.206 41.8442 301.008 42.3452 300.876 42.9165C300.744 43.4878 300.678 44.0986 300.678 44.749ZM312.768 45.0259V44.7227C312.768 43.6943 312.917 42.7407 313.216 41.8618C313.515 40.9741 313.945 40.2051 314.508 39.5547C315.079 38.8955 315.773 38.3857 316.591 38.0254C317.417 37.6562 318.349 37.4717 319.386 37.4717C320.432 37.4717 321.363 37.6562 322.181 38.0254C323.007 38.3857 323.706 38.8955 324.277 39.5547C324.848 40.2051 325.283 40.9741 325.582 41.8618C325.881 42.7407 326.03 43.6943 326.03 44.7227V45.0259C326.03 46.0542 325.881 47.0078 325.582 47.8867C325.283 48.7656 324.848 49.5347 324.277 50.1938C323.706 50.8442 323.011 51.354 322.194 51.7231C321.376 52.0835 320.449 52.2637 319.412 52.2637C318.366 52.2637 317.43 52.0835 316.604 51.7231C315.787 51.354 315.092 50.8442 314.521 50.1938C313.95 49.5347 313.515 48.7656 313.216 47.8867C312.917 47.0078 312.768 46.0542 312.768 45.0259ZM315.945 44.7227V45.0259C315.945 45.6675 316.011 46.2739 316.143 46.8452C316.274 47.4165 316.481 47.9175 316.762 48.3481C317.043 48.7788 317.404 49.1172 317.843 49.3633C318.283 49.6094 318.806 49.7324 319.412 49.7324C320.001 49.7324 320.511 49.6094 320.941 49.3633C321.381 49.1172 321.741 48.7788 322.022 48.3481C322.304 47.9175 322.51 47.4165 322.642 46.8452C322.783 46.2739 322.853 45.6675 322.853 45.0259V44.7227C322.853 44.0898 322.783 43.4922 322.642 42.9297C322.51 42.3584 322.299 41.853 322.009 41.4136C321.728 40.9741 321.368 40.6313 320.928 40.3853C320.498 40.1304 319.983 40.0029 319.386 40.0029C318.788 40.0029 318.27 40.1304 317.83 40.3853C317.399 40.6313 317.043 40.9741 316.762 41.4136C316.481 41.853 316.274 42.3584 316.143 42.9297C316.011 43.4922 315.945 44.0898 315.945 44.7227ZM328.087 45.0259V44.7227C328.087 43.6943 328.236 42.7407 328.535 41.8618C328.834 40.9741 329.265 40.2051 329.827 39.5547C330.398 38.8955 331.093 38.3857 331.91 38.0254C332.736 37.6562 333.668 37.4717 334.705 37.4717C335.751 37.4717 336.683 37.6562 337.5 38.0254C338.326 38.3857 339.025 38.8955 339.596 39.5547C340.167 40.2051 340.603 40.9741 340.901 41.8618C341.2 42.7407 341.35 43.6943 341.35 44.7227V45.0259C341.35 46.0542 341.2 47.0078 340.901 47.8867C340.603 48.7656 340.167 49.5347 339.596 50.1938C339.025 50.8442 338.331 51.354 337.513 51.7231C336.696 52.0835 335.769 52.2637 334.731 52.2637C333.686 52.2637 332.75 52.0835 331.923 51.7231C331.106 51.354 330.412 50.8442 329.84 50.1938C329.269 49.5347 328.834 48.7656 328.535 47.8867C328.236 47.0078 328.087 46.0542 328.087 45.0259ZM331.264 44.7227V45.0259C331.264 45.6675 331.33 46.2739 331.462 46.8452C331.594 47.4165 331.8 47.9175 332.082 48.3481C332.363 48.7788 332.723 49.1172 333.163 49.3633C333.602 49.6094 334.125 49.7324 334.731 49.7324C335.32 49.7324 335.83 49.6094 336.261 49.3633C336.7 49.1172 337.061 48.7788 337.342 48.3481C337.623 47.9175 337.83 47.4165 337.961 46.8452C338.102 46.2739 338.172 45.6675 338.172 45.0259V44.7227C338.172 44.0898 338.102 43.4922 337.961 42.9297C337.83 42.3584 337.619 41.853 337.329 41.4136C337.047 40.9741 336.687 40.6313 336.248 40.3853C335.817 40.1304 335.303 40.0029 334.705 40.0029C334.107 40.0029 333.589 40.1304 333.149 40.3853C332.719 40.6313 332.363 40.9741 332.082 41.4136C331.8 41.853 331.594 42.3584 331.462 42.9297C331.33 43.4922 331.264 44.0898 331.264 44.7227ZM353.149 37.7354H356.036V51.6045C356.036 52.8877 355.764 53.9775 355.219 54.874C354.674 55.7705 353.914 56.4517 352.938 56.9175C351.962 57.3921 350.833 57.6294 349.55 57.6294C349.005 57.6294 348.398 57.5503 347.73 57.3921C347.071 57.2339 346.43 56.979 345.806 56.6274C345.19 56.2847 344.676 55.832 344.263 55.2695L345.753 53.3975C346.263 54.0039 346.825 54.4478 347.44 54.729C348.056 55.0103 348.702 55.1509 349.378 55.1509C350.108 55.1509 350.728 55.0146 351.237 54.7422C351.756 54.4785 352.156 54.0874 352.437 53.5688C352.718 53.0503 352.859 52.4175 352.859 51.6704V40.9653L353.149 37.7354ZM343.459 45.0259V44.749C343.459 43.668 343.591 42.6836 343.854 41.7959C344.118 40.8994 344.496 40.1304 344.988 39.4888C345.48 38.8384 346.078 38.3418 346.781 37.999C347.484 37.6475 348.28 37.4717 349.167 37.4717C350.09 37.4717 350.877 37.6387 351.527 37.9727C352.187 38.3066 352.736 38.7856 353.175 39.4097C353.615 40.0249 353.958 40.7632 354.204 41.6245C354.458 42.4771 354.647 43.4263 354.771 44.4722V45.3555C354.656 46.375 354.463 47.3066 354.19 48.1504C353.918 48.9941 353.558 49.7236 353.109 50.3389C352.661 50.9541 352.107 51.4287 351.448 51.7627C350.798 52.0967 350.029 52.2637 349.141 52.2637C348.271 52.2637 347.484 52.0835 346.781 51.7231C346.087 51.3628 345.489 50.8574 344.988 50.207C344.496 49.5566 344.118 48.792 343.854 47.9131C343.591 47.0254 343.459 46.063 343.459 45.0259ZM346.636 44.749V45.0259C346.636 45.6763 346.698 46.2827 346.821 46.8452C346.953 47.4077 347.15 47.9043 347.414 48.335C347.687 48.7568 348.029 49.0908 348.442 49.3369C348.864 49.5742 349.361 49.6929 349.932 49.6929C350.679 49.6929 351.29 49.5347 351.765 49.2183C352.248 48.9019 352.617 48.4756 352.872 47.9395C353.136 47.3945 353.32 46.7881 353.426 46.1201V43.7339C353.373 43.2153 353.263 42.7319 353.096 42.2837C352.938 41.8354 352.723 41.4443 352.45 41.1104C352.178 40.7676 351.835 40.5039 351.422 40.3193C351.009 40.126 350.521 40.0293 349.958 40.0293C349.387 40.0293 348.891 40.1523 348.469 40.3984C348.047 40.6445 347.7 40.9829 347.427 41.4136C347.164 41.8442 346.966 42.3452 346.834 42.9165C346.702 43.4878 346.636 44.0986 346.636 44.749ZM362.733 31.75V52H359.543V31.75H362.733ZM372.502 52.2637C371.448 52.2637 370.494 52.0923 369.642 51.7495C368.798 51.3979 368.077 50.9102 367.479 50.2861C366.891 49.6621 366.438 48.9282 366.122 48.0845C365.805 47.2407 365.647 46.3311 365.647 45.3555V44.8281C365.647 43.7119 365.81 42.7012 366.135 41.7959C366.46 40.8906 366.913 40.1172 367.493 39.4756C368.073 38.8252 368.758 38.3286 369.549 37.9858C370.34 37.6431 371.197 37.4717 372.12 37.4717C373.14 37.4717 374.032 37.6431 374.796 37.9858C375.561 38.3286 376.194 38.812 376.695 39.436C377.205 40.0513 377.583 40.7852 377.829 41.6377C378.083 42.4902 378.211 43.4307 378.211 44.459V45.8169H367.189V43.5361H375.073V43.2856C375.056 42.7144 374.941 42.1782 374.73 41.6772C374.528 41.1763 374.216 40.772 373.794 40.4644C373.373 40.1567 372.81 40.0029 372.107 40.0029C371.58 40.0029 371.109 40.1172 370.696 40.3457C370.292 40.5654 369.954 40.8862 369.681 41.3081C369.409 41.73 369.198 42.2397 369.048 42.8374C368.908 43.4263 368.837 44.0898 368.837 44.8281V45.3555C368.837 45.9795 368.921 46.5596 369.088 47.0957C369.264 47.623 369.519 48.0845 369.853 48.48C370.187 48.8755 370.591 49.1875 371.065 49.416C371.54 49.6357 372.081 49.7456 372.687 49.7456C373.452 49.7456 374.133 49.5918 374.73 49.2842C375.328 48.9766 375.847 48.5415 376.286 47.979L377.96 49.6006C377.653 50.0488 377.253 50.4795 376.761 50.8926C376.269 51.2969 375.667 51.6265 374.955 51.8813C374.251 52.1362 373.434 52.2637 372.502 52.2637Z" fill="#FF6C00"/>
<path d="M105.309 36.994C105.678 38.971 105.879 41.038 105.879 43.195C105.879 60.067 94.587 72.064 77.532 72.064C73.6535 72.0652 69.8127 71.3021 66.2292 69.8184C62.6457 68.3347 59.3896 66.1594 56.6471 63.4169C53.9046 60.6744 51.7293 57.4183 50.2456 53.8348C48.7619 50.2513 47.9988 46.4105 48 42.532C47.9988 38.6535 48.7619 34.8127 50.2456 31.2292C51.7293 27.6457 53.9046 24.3896 56.6471 21.6471C59.3896 18.9046 62.6457 16.7293 66.2292 15.2456C69.8127 13.7619 73.6535 12.9988 77.532 13C85.506 13 92.169 15.934 97.281 20.698L88.956 29.023V29.002C85.857 26.05 81.924 24.535 77.532 24.535C67.788 24.535 59.868 32.767 59.868 42.514C59.868 52.258 67.788 60.508 77.532 60.508C86.373 60.508 92.391 55.453 93.627 48.511H77.532V36.994H105.312H105.309Z" fill="#FF6C00"/>
<g filter="url(#filter0_d_32_291)">
<rect x="5" y="3" width="460" height="79" rx="24" stroke="white" shape-rendering="crispEdges"/>
</g>
<defs>
<filter id="filter0_d_32_291" x="0.5" y="0.5" width="469" height="88" filterUnits="userSpaceOnUse" color-interpolation-filters="sRGB">
<feFlood flood-opacity="0" result="BackgroundImageFix"/>
<feColorMatrix in="SourceAlpha" type="matrix" values="0 0 0 0 0 0 0 0 0 0 0 0 0 0 0 0 0 0 127 0" result="hardAlpha"/>
<feOffset dy="2"/>
<feGaussianBlur stdDeviation="2"/>
<feComposite in2="hardAlpha" operator="out"/>
<feColorMatrix type="matrix" values="0 0 0 0 0 0 0 0 0 0 0 0 0 0 0 0 0 0 1 0"/>
<feBlend mode="normal" in2="BackgroundImageFix" result="effect1_dropShadow_32_291"/>
<feBlend mode="normal" in="SourceGraphic" in2="effect1_dropShadow_32_291" result="shape"/>
</filter>
</defs>
</svg>
